<svg width="48" height="44" viewBox="0 0 48 44" fill="none" xmlns="http://www.w3.org/2000/svg">
<path d="M47.9236 25.8275C46.7311 24.47 41.0304 17.9905 41.0304 17.9905C40.9833 17.933 40.9362 17.886 40.8996 17.8443C40.8055 17.7398 40.6538 17.7242 40.5387 17.8077L38.3683 19.4054C38.2637 19.4785 38.1225 19.4733 38.0283 19.3897C37.2909 18.7162 34.1267 15.7506 30.2722 10.9992C30.2617 10.9888 30.2565 10.9784 30.246 10.9679C29.995 10.5398 25.9365 3.02645 24.6551 0.73434C24.4825 0.426288 24.038 0.421067 23.8549 0.723897L23.4574 1.39743L17.741 11.0306C17.6468 11.1872 17.4272 11.2081 17.3069 11.0723L16.2347 9.84536C16.1197 9.71483 15.9209 9.72527 15.8163 9.86102L14.8749 11.1402L9.27353 18.7527C9.18462 18.8728 9.01203 18.8989 8.89174 18.805L7.66791 17.8286C7.55808 17.7398 7.39595 17.7555 7.30181 17.8599L0.068654 25.8118C-0.0359469 25.9267 -0.0202567 26.1147 0.110494 26.2086L23.698 43.4491C23.7921 43.517 23.9177 43.517 24.0066 43.4491C24.8225 42.8539 28.7816 39.977 33.269 36.7398C33.269 36.7398 45.8786 27.7124 47.8765 26.2713C48.0177 26.1669 48.0438 25.9632 47.9236 25.8327V25.8275ZM23.5672 3.23008C23.766 2.91681 23.9072 2.77061 24.0379 2.78106C24.0589 2.78106 24.0798 2.78106 24.1007 2.7915C25.0735 3.18309 26.7628 8.90032 26.9459 10.0594C27.0138 10.4876 27.1864 10.7069 26.6425 10.8061C26.1457 9.23448 25.1519 7.65245 24.0746 6.40458C24.0484 7.78298 24.0013 9.05695 24.0223 9.01518C24.0223 9.01518 23.6823 9.74093 22.4899 12.2889C22.4532 12.5499 21.0254 15.6931 21.0254 15.6931C21.0254 15.6775 19.7441 14.3356 19.5297 14.0641C18.8236 13.2026 18.3372 12.4821 18.3267 12.4507C19.1845 11.1037 22.0924 5.94511 23.5882 3.2353H23.5672V3.23008ZM6.38132 28.5373C6.29764 28.6104 6.21396 28.6783 6.14074 28.7462L5.11565 28.0047L4.69201 27.6967L4.67632 27.6862L4.66063 27.6758C4.66063 27.6758 4.67632 27.6915 4.68678 27.7019L4.21608 27.3625H4.21085C4.21085 27.3625 4.21085 27.3625 4.22131 27.3469H4.22654C4.22654 27.3469 4.25269 27.3155 4.27361 27.2999L4.28407 27.2894C4.28407 27.2894 4.30499 27.2686 4.32068 27.2581C4.32591 27.2581 4.33637 27.2424 4.3416 27.2372C4.37298 27.2111 4.40436 27.1798 4.44097 27.1432C4.47758 27.1067 4.51942 27.0701 4.56126 27.0284C4.56126 27.0284 4.57172 27.0179 4.57695 27.0179C4.59787 26.997 4.62402 26.9762 4.64494 26.9553C4.66586 26.9344 4.68678 26.9135 4.71293 26.8926C4.73385 26.877 4.74954 26.8613 4.77046 26.8404C4.8123 26.8039 4.85938 26.7621 4.90122 26.7203C4.90122 26.7203 4.90645 26.7203 4.91168 26.7099C4.99536 26.6316 5.08427 26.5532 5.17841 26.4645C5.17841 26.4645 5.18364 26.4645 5.18887 26.454C5.18887 26.454 5.1941 26.454 5.19933 26.4436C5.27255 26.3757 5.351 26.3026 5.42945 26.2348C5.45037 26.2139 5.47129 26.1982 5.49221 26.1773C5.49221 26.1773 5.5079 26.1669 5.51313 26.1564C5.5602 26.1147 5.60727 26.0677 5.65957 26.0259C5.69618 25.9894 5.73802 25.958 5.77463 25.9215C5.78509 25.911 5.79555 25.9006 5.80601 25.8954C5.80601 25.8954 5.81124 25.8954 5.81647 25.8849C5.81647 25.8849 5.8217 25.8849 5.82693 25.8745C5.85308 25.8536 5.87923 25.8275 5.90538 25.8066C5.96291 25.7544 6.02044 25.7022 6.07798 25.65C6.2035 25.5351 6.33425 25.4202 6.45977 25.3054C6.47546 25.2949 6.48592 25.2793 6.50161 25.2688C6.55391 25.2218 6.60621 25.1748 6.65851 25.1279C6.79972 25.0025 6.9357 24.8772 7.06645 24.7571C7.08737 24.7363 7.10829 24.7206 7.12921 24.6997C7.23382 24.6005 7.33842 24.5117 7.43779 24.423C7.45348 24.4073 7.4744 24.3917 7.49009 24.376C7.58946 24.282 7.68883 24.1985 7.77774 24.1149C7.84573 24.0523 7.91372 23.9896 7.97648 23.9374C7.97648 23.9374 7.98694 23.927 7.99217 23.9218C8.02878 23.8852 8.06539 23.8539 8.102 23.8225C8.11246 23.8121 8.12292 23.8017 8.13861 23.7912C8.14907 23.7808 8.15953 23.7703 8.16999 23.7599C8.18045 23.7599 8.18568 23.7442 8.19091 23.739C8.21183 23.7181 8.23275 23.6972 8.25367 23.6816L8.26413 23.6711C8.26413 23.6711 8.29551 23.645 8.30597 23.6294C8.3112 23.6294 8.32166 23.6137 8.32689 23.6085C8.36874 23.5719 8.38443 23.5249 8.38966 23.4727C8.38966 23.4414 8.38966 23.4101 8.3792 23.3787C8.3792 23.3683 8.3792 23.3631 8.37397 23.3526C8.36874 23.337 8.35828 23.3213 8.35304 23.3056C8.33735 23.2691 8.31643 23.2273 8.29551 23.196C8.26936 23.1542 8.23798 23.1125 8.21183 23.0811C8.18045 23.0446 8.14907 23.0133 8.13338 22.9976C8.12292 22.9872 8.11246 22.9819 8.10723 22.9819C8.05493 23.0133 7.9974 23.0446 7.93987 23.0759C7.87711 23.1125 7.80389 23.1542 7.7359 23.196C7.64176 23.2534 7.54239 23.3109 7.43256 23.3683H7.4221C7.4221 23.3683 7.38026 23.3944 7.35411 23.4049C7.34365 23.4049 7.33319 23.4153 7.32273 23.4205C7.31227 23.4257 7.30181 23.4362 7.28612 23.4414C7.07691 23.5615 6.85202 23.692 6.61667 23.8278C6.60098 23.8382 6.58006 23.8487 6.56437 23.8591C6.42316 23.9426 6.27672 24.0262 6.13028 24.1097C5.83739 24.282 5.53405 24.4543 5.23594 24.6318C5.15749 24.6788 5.07381 24.7258 4.99536 24.7728C4.58741 25.013 4.19516 25.2427 3.83952 25.4516C3.61985 25.5769 3.41588 25.7022 3.23283 25.8066C3.19622 25.8275 3.16484 25.8484 3.13346 25.864C3.07593 25.9006 3.0184 25.9319 2.96087 25.9632C2.79874 26.0572 2.66276 26.1408 2.55816 26.1982L1.76319 25.6239C1.88871 25.4829 2.63661 24.684 3.53617 23.7233C3.84998 23.3892 4.1847 23.0341 4.51419 22.6791C4.85415 22.3188 5.18887 21.9638 5.50267 21.6296C5.80078 21.3164 6.07798 21.0188 6.31333 20.7629C6.33425 20.7368 6.3604 20.7107 6.38132 20.6898C6.39701 20.6742 6.4127 20.6585 6.42839 20.6428C6.47023 20.5958 6.5173 20.5488 6.55391 20.5071C6.58006 20.4757 6.60621 20.4496 6.63236 20.4235C6.65851 20.3974 6.67943 20.3713 6.70558 20.3452C6.73696 20.3087 6.76834 20.2773 6.79972 20.246C6.81541 20.2304 6.8311 20.2147 6.84679 20.199C7.05599 19.9745 7.18151 19.8388 7.18151 19.8335V19.844C7.18151 19.844 7.18151 19.844 7.18674 19.8544C7.18674 19.8544 7.19198 19.8649 7.19721 19.8701C7.20766 19.8858 7.22858 19.9119 7.24951 19.938C7.24951 19.938 7.25997 19.9536 7.2652 19.9589C7.28612 19.985 7.30704 20.0163 7.33319 20.0528C7.33842 20.0528 7.34365 20.0685 7.34888 20.0737C7.38026 20.1155 7.41687 20.1625 7.45348 20.2147C7.49009 20.2669 7.53193 20.3191 7.579 20.3765C7.579 20.3765 7.58423 20.387 7.58946 20.3922C7.64176 20.4601 7.69406 20.528 7.74636 20.6011C7.80389 20.6742 7.86142 20.7473 7.91895 20.8203C7.93464 20.8412 7.95033 20.8621 7.96602 20.883C8.05493 20.9927 8.13861 21.1023 8.21706 21.2067C8.36874 21.4051 8.50472 21.5774 8.5884 21.6819C8.63547 21.7393 8.66685 21.7811 8.67731 21.7915L15.3404 12.0383H15.3456C15.4345 12.0592 15.5182 12.08 15.5862 12.1114C15.6228 12.127 15.6594 12.1427 15.6908 12.1636C15.7013 12.1688 15.7117 12.174 15.7169 12.1845C15.7379 12.2001 15.7588 12.2106 15.7745 12.2262C15.7849 12.2315 15.7902 12.2419 15.8006 12.2523C15.8163 12.268 15.832 12.2837 15.8425 12.3046C15.8477 12.315 15.8529 12.3202 15.8582 12.3307C15.8895 12.3829 15.9105 12.4455 15.9209 12.5134V12.6753C15.9209 12.7066 15.9157 12.7379 15.9105 12.7692C15.9105 12.7849 15.9105 12.7953 15.9052 12.811C15.8948 12.858 15.8843 12.9102 15.8686 12.9624C15.8529 13.0094 15.8425 13.0564 15.8215 13.1086C15.7902 13.1974 15.7536 13.2966 15.7117 13.401C15.6803 13.4793 15.649 13.5576 15.6123 13.6464C15.5287 13.8396 15.4554 14.038 15.3875 14.2468C15.3142 14.4557 15.2515 14.6645 15.1835 14.8734C15.1364 15.0248 15.0893 15.171 15.037 15.3224C15.0161 15.3851 14.9952 15.4529 14.9743 15.5156C14.9115 15.7036 14.8435 15.8863 14.7703 16.0638L15.6019 16.1839C15.6019 16.1839 15.6176 16.1526 15.6228 16.1421C15.6594 16.0743 15.696 16.0116 15.7274 15.9594C15.7588 15.902 15.7902 15.855 15.8215 15.8132C15.8477 15.7767 15.8791 15.7401 15.9105 15.714C15.9209 15.7036 15.9314 15.6983 15.9366 15.6879C15.9575 15.667 15.9837 15.6513 16.0098 15.6357C16.0151 15.6357 16.0203 15.6252 16.0308 15.62H16.0412C16.0778 15.6044 16.1197 15.5887 16.1615 15.5783C16.2138 15.5678 16.2661 15.5626 16.3289 15.5626C16.4544 15.5626 16.6113 15.5783 16.81 15.6096C16.8257 15.6096 16.8414 15.6252 16.8519 15.6357C16.8519 15.6357 16.8519 15.6461 16.8623 15.6461C16.8623 15.6566 16.878 15.667 16.878 15.6827C16.878 15.6879 16.878 15.6931 16.878 15.6983C16.878 15.7192 16.8885 15.7453 16.8885 15.7714C16.8885 15.8028 16.8885 15.8393 16.8885 15.8759C16.8885 15.9124 16.878 15.949 16.8676 15.9907V16.0012C16.8676 16.0012 16.8676 16.0168 16.8676 16.0273C16.8676 16.0586 16.8519 16.0899 16.8414 16.1265C16.8414 16.1421 16.8414 16.1526 16.8309 16.1682C16.8153 16.2152 16.8048 16.2675 16.7839 16.3197C16.7577 16.398 16.7263 16.4867 16.695 16.5807C16.6845 16.6016 16.6793 16.6225 16.6688 16.6434C16.6584 16.6643 16.6531 16.6904 16.6427 16.7113C16.6165 16.7844 16.5851 16.8574 16.5538 16.9305C16.5171 17.0141 16.4805 17.1028 16.4439 17.1916C16.4439 17.1968 16.4387 17.202 16.4335 17.2125C16.3916 17.3013 16.355 17.3952 16.3079 17.4892C16.2609 17.5936 16.2138 17.6981 16.1615 17.8025C16.1615 17.8025 16.1615 17.8129 16.1563 17.8182C15.9994 18.1471 15.8215 18.4917 15.6333 18.8467C15.5757 18.9564 15.513 19.0712 15.4502 19.1809C15.4398 19.1966 15.4345 19.2122 15.4241 19.2279C15.3665 19.3323 15.309 19.4315 15.2515 19.5359C15.241 19.5516 15.2358 19.5673 15.2253 19.5777C15.0946 19.8127 14.9586 20.0424 14.8174 20.2721C14.8122 20.2826 14.8017 20.2982 14.7965 20.3087C14.7389 20.4027 14.6814 20.5019 14.6186 20.5958C14.6029 20.6272 14.582 20.6533 14.5663 20.6846C14.514 20.7629 14.467 20.8412 14.4147 20.9196C14.3937 20.9509 14.3781 20.9822 14.3571 21.0083C14.3048 21.0919 14.2473 21.1702 14.195 21.2537C14.1793 21.2746 14.1689 21.2955 14.1532 21.3164C14.0852 21.4156 14.0172 21.5148 13.9492 21.614C13.9387 21.6296 13.9283 21.6453 13.9178 21.661C13.8603 21.7393 13.808 21.8176 13.7505 21.8907C13.7295 21.922 13.7086 21.9481 13.6877 21.9742C13.6406 22.0369 13.5988 22.0943 13.5569 22.1518C13.536 22.1831 13.5099 22.2092 13.4889 22.2405C13.4419 22.298 13.4 22.3502 13.3582 22.4076C13.3373 22.4337 13.3164 22.4546 13.3007 22.4807C13.2379 22.5538 13.1751 22.6269 13.1176 22.6948C13.0705 22.747 13.013 22.8096 12.9503 22.8723C12.9293 22.8932 12.9084 22.9141 12.8875 22.9402C12.8875 22.9402 12.877 22.9506 12.8718 22.9558C12.8352 22.9976 12.7934 23.0341 12.7463 23.0759C12.694 23.1229 12.6417 23.1751 12.5894 23.2273C12.5162 23.2952 12.4377 23.3735 12.354 23.4466C12.3331 23.4675 12.3122 23.4884 12.2913 23.5041C12.2076 23.5824 12.1187 23.6607 12.0298 23.7442C11.9513 23.8173 11.8676 23.8904 11.784 23.9635C11.7578 23.9844 11.7317 24.0105 11.7055 24.0366C11.648 24.0888 11.5852 24.141 11.5225 24.1985C11.4911 24.2246 11.4597 24.2559 11.4283 24.282C11.3656 24.3394 11.3028 24.3917 11.2348 24.4491C11.2086 24.4752 11.1825 24.4961 11.1511 24.5222C11.057 24.6057 10.9628 24.684 10.8687 24.7676C10.7693 24.8511 10.6752 24.9347 10.5758 25.0234C10.5497 25.0495 10.5183 25.0704 10.4921 25.0965C10.4189 25.1592 10.3457 25.2218 10.2777 25.2845C10.2463 25.3158 10.2097 25.3419 10.1783 25.3732C10.1051 25.4359 10.0371 25.4933 9.9639 25.556C9.93252 25.5821 9.90114 25.6082 9.86976 25.6343C9.77039 25.7231 9.66579 25.8066 9.56642 25.8954C9.4775 25.9737 9.38859 26.0468 9.29968 26.1251C9.19508 26.2139 9.09048 26.3026 8.98588 26.3914C8.95973 26.4123 8.93358 26.4384 8.90743 26.4593C8.83421 26.5219 8.75576 26.5846 8.68254 26.6472C8.64593 26.6786 8.60409 26.7099 8.56748 26.7412C8.50472 26.7934 8.44196 26.8456 8.3792 26.8978C8.34258 26.9292 8.30597 26.9605 8.26936 26.9866C8.17522 27.0649 8.08108 27.1485 7.98694 27.2268C7.8928 27.3051 7.80389 27.3834 7.71498 27.4565C7.61561 27.5401 7.51624 27.6236 7.4221 27.7019L7.21813 27.8742C7.0926 27.9786 6.96708 28.0831 6.85202 28.1823C6.7788 28.2449 6.70558 28.3024 6.63759 28.3598C6.54345 28.4433 6.44931 28.5164 6.36563 28.5895L6.38655 28.5373H6.38132ZM9.14278 29.8687C9.08002 29.9053 9.02249 29.9366 8.96496 29.9731C8.85513 30.0358 8.76099 30.0932 8.67208 30.1454C8.62501 30.1715 8.58317 30.1977 8.54656 30.2185C8.48903 30.2499 8.44196 30.2812 8.40012 30.3073C8.3792 30.3177 8.36351 30.3282 8.34781 30.3386L7.62607 29.8165C7.62607 29.8165 7.74113 29.7382 7.8928 29.6442C7.90326 29.6442 7.90849 29.6338 7.91895 29.6285C8.08108 29.5293 8.29028 29.3936 8.5361 29.2422C8.57794 29.2161 8.61978 29.19 8.66162 29.1639C8.76622 29.1012 8.87082 29.0333 8.98065 28.9654C9.14278 28.861 9.31537 28.7566 9.48273 28.647C9.62395 28.5582 9.75993 28.4694 9.89068 28.3807C10.0214 28.2919 10.1522 28.2084 10.2725 28.13C10.3509 28.0778 10.4294 28.0256 10.4974 27.9734C10.6752 27.8481 10.8216 27.7437 10.9262 27.6601H10.921C12.4429 26.4227 14.2787 24.6423 15.8111 23.2169C15.9157 23.1229 16.0151 23.0289 16.1144 22.9349C17.0715 22.0473 17.9972 21.1232 18.9073 20.1834C19.7859 19.2801 20.6593 18.3768 21.5432 17.4788C21.5903 17.4318 21.6321 17.3848 21.6792 17.343C21.8256 17.1968 21.9669 17.0506 22.1133 16.9044C22.3434 16.6747 22.5788 16.445 22.8141 16.2152C23.0495 15.9855 23.2848 15.761 23.5254 15.5365C23.6614 15.6983 23.7085 15.9959 23.7085 16.3719C23.7085 16.5859 23.6875 16.8261 23.6562 17.0872C23.6457 17.1498 23.6405 17.2177 23.63 17.2856C23.6091 17.4161 23.5882 17.5519 23.562 17.6928C23.4783 18.1784 23.3633 18.6849 23.2482 19.1704C23.2168 19.3062 23.1855 19.4419 23.1488 19.5777C23.0024 20.1729 22.8716 20.7003 22.8037 21.0449C22.7618 21.2694 22.7461 21.4208 22.7775 21.4521C23.3371 21.4051 23.9333 20.6794 24.5087 20.4862H24.5191V20.4966C24.5191 20.4966 24.5296 20.4966 24.5348 20.4966C24.54 20.4966 24.5453 20.4966 24.5505 20.4966C24.7231 20.6376 24.8695 20.7995 24.995 20.9718C25.0787 21.0866 25.152 21.2067 25.2199 21.3268C25.2879 21.4521 25.3402 21.5774 25.3873 21.7027C25.4605 21.8959 25.5076 22.0891 25.539 22.2771C25.7639 23.6764 24.9323 24.872 23.3685 23.2378C23.2482 23.4257 22.9135 23.8278 22.4899 24.2977C22.4062 24.3917 22.3173 24.4909 22.2284 24.5848C21.9564 24.8825 21.6635 25.1905 21.3759 25.4881C21.0882 25.7857 20.8058 26.0625 20.5547 26.2974C20.4711 26.3757 20.3926 26.4488 20.3142 26.5167C20.2357 26.5846 20.1677 26.642 20.105 26.6942C20.0056 26.7725 19.9219 26.8352 19.8539 26.877C19.833 26.8926 19.8121 26.9031 19.7912 26.9135C19.6604 26.9762 19.514 27.0388 19.3623 27.091C19.2629 27.1224 19.1583 27.1537 19.0537 27.185C19.0119 27.1955 18.97 27.2059 18.9282 27.2163C18.8864 27.2268 18.8393 27.2372 18.7922 27.2529C18.7504 27.2633 18.7138 27.2738 18.6719 27.2842C18.6353 27.2947 18.5935 27.2999 18.5569 27.3103C18.4993 27.3208 18.4366 27.3312 18.3738 27.3469C18.3529 27.3469 18.332 27.3573 18.3111 27.3573C18.1385 27.3886 17.9606 27.42 17.7828 27.4461C17.5945 27.4722 17.4063 27.4983 17.218 27.5192C16.8519 27.5609 16.4962 27.5975 16.1667 27.6236H16.1249C15.9628 27.6393 15.8111 27.6497 15.6699 27.6654H15.6594L18.0391 25.4568C18.0757 25.415 18.1228 25.3628 18.1751 25.3002C18.3215 25.1279 18.515 24.8825 18.719 24.6162C18.902 24.376 19.0956 24.1254 19.2681 23.8852C19.3989 23.7077 19.514 23.5406 19.6081 23.3996C19.7022 23.2587 19.7702 23.1438 19.8068 23.0707C19.8278 23.0289 19.8435 22.9924 19.8591 22.9558C19.901 22.8462 19.9219 22.7679 19.9219 22.7104C19.9219 22.6321 19.8801 22.5956 19.8121 22.5851C19.5924 22.5747 19.106 22.8671 18.6144 23.2064C18.5464 23.2534 18.4732 23.3056 18.4052 23.3579C18.264 23.4571 18.128 23.5615 18.0025 23.6555C17.877 23.7547 17.7567 23.8434 17.6521 23.927C17.5998 23.9687 17.5527 24.0053 17.5109 24.0418C17.3801 24.1463 17.2912 24.2194 17.2598 24.2402C16.9669 24.4804 16.6636 24.7258 16.3602 24.9764C16.1824 25.1226 16.0046 25.2688 15.8268 25.4202C15.6071 25.603 15.3875 25.7805 15.1626 25.958C14.8697 26.193 14.5768 26.4279 14.2787 26.6577C14.012 26.8613 13.7452 27.0597 13.4733 27.2477C13.1228 27.4983 12.7672 27.7385 12.4116 27.9525C12.3645 27.9786 12.3122 28.0152 12.2494 28.0517C12.2024 28.0831 12.1448 28.1144 12.0873 28.1457C12.035 28.177 11.9827 28.2084 11.9304 28.2397C11.7944 28.318 11.6427 28.412 11.4806 28.506C11.4231 28.5373 11.3656 28.5739 11.308 28.6052C11.2662 28.6313 11.2243 28.6522 11.1825 28.6783C11.0517 28.7566 10.9158 28.8349 10.7798 28.9132C10.6229 29.0072 10.4608 29.1012 10.2986 29.1952L9.92206 29.4145C9.78608 29.4928 9.6501 29.5711 9.51935 29.6494C9.38859 29.7225 9.2683 29.7956 9.14801 29.8635L9.13755 29.8739L9.14278 29.8687ZM28.6352 38.2592C28.3632 38.2749 28.0912 38.3114 27.8193 38.3741C27.2753 38.4942 26.7419 38.6926 26.2293 38.9327C25.9731 39.0528 25.722 39.1834 25.4762 39.3191C25.2304 39.4549 24.995 39.6011 24.7702 39.742C24.5453 39.883 24.3308 40.0292 24.1269 40.1702C23.9229 40.3111 23.7346 40.4469 23.5568 40.5774C23.379 40.708 23.2168 40.8228 23.0704 40.9325L21.4752 39.8412C21.5694 39.7525 21.742 39.6115 21.9773 39.434C22.1185 39.3296 22.2807 39.2095 22.4585 39.0789C22.5788 38.9954 22.7043 38.9066 22.8403 38.8127C23.0442 38.6769 23.2587 38.5359 23.4888 38.395C23.7189 38.254 23.9543 38.113 24.2001 37.972C24.4407 37.8363 24.6812 37.7058 24.9323 37.5857C25.3036 37.4029 25.6802 37.2359 26.0515 37.1053C26.4124 36.9748 26.7471 36.8651 27.0661 36.7764C27.5473 36.6354 27.9814 36.5362 28.3737 36.4683C28.5044 36.4422 28.6299 36.4213 28.7554 36.4057C29.2471 36.3326 29.6655 36.3065 30.0211 36.3065C30.1989 36.3065 30.3611 36.3065 30.5075 36.3169C30.7272 36.3274 30.9155 36.343 31.0724 36.3587C31.1247 36.3587 31.1717 36.3691 31.2188 36.3691L28.6299 38.2644L28.6352 38.2592ZM33.4259 34.8132C32.9918 34.7923 32.5682 34.7767 32.1602 34.7767C31.7523 34.7767 31.36 34.7767 30.9782 34.7871C30.4081 34.808 29.8694 34.8445 29.3517 34.8967C29.0065 34.9333 28.677 34.9751 28.358 35.0273C27.0975 35.2257 25.9992 35.5233 25.016 35.9044C24.8748 35.9566 24.7388 36.0141 24.5976 36.0715C23.7451 36.4266 22.9762 36.8443 22.244 37.2985C21.5118 37.7528 20.8162 38.2488 20.1206 38.7604L17.9972 37.3194C18.0495 37.2828 18.1018 37.2515 18.1542 37.2097C18.3215 37.1001 18.5046 36.9748 18.7085 36.8443C18.9543 36.6824 19.2263 36.5101 19.5244 36.3274C19.6029 36.2804 19.6866 36.2282 19.7702 36.1812C20.0317 36.0245 20.3089 35.8627 20.607 35.7008C20.675 35.6643 20.743 35.6277 20.8162 35.5859C20.947 35.5181 21.0777 35.4502 21.2137 35.3771C22.0192 34.9646 22.9344 34.5521 23.9386 34.1919C24.1059 34.1344 24.2733 34.0718 24.4459 34.0196C24.5296 33.9935 24.6185 33.9622 24.7022 33.936C25.1415 33.8003 25.6017 33.6698 26.0724 33.5601C26.8569 33.3774 27.6833 33.2312 28.541 33.1529C29.6812 33.0432 30.7742 33.0067 31.7575 33.0014H32.2439C32.7198 33.0014 33.1696 33.0171 33.588 33.0328C33.8652 33.0432 34.1319 33.0537 34.3777 33.0693C34.5033 33.0693 34.6236 33.0798 34.7386 33.0902C35.0838 33.1111 35.3924 33.1268 35.6591 33.1424L33.4259 34.8028V34.8132ZM37.181 31.9624C37.0032 31.9259 36.8254 31.8893 36.6424 31.858C36.5482 31.8423 36.4541 31.8267 36.3599 31.811C36.0775 31.764 35.7846 31.7275 35.4813 31.6909C35.3819 31.6805 35.2825 31.67 35.1779 31.6596C34.3725 31.5761 33.5305 31.5343 32.7146 31.5134C32.6152 31.5134 32.5106 31.5134 32.4113 31.5134C32.2073 31.5134 32.0085 31.5134 31.8098 31.5134C31.3182 31.5134 30.8475 31.5134 30.4081 31.5343C30.1414 31.5447 29.8851 31.5552 29.6446 31.5656C29.4877 31.5761 29.336 31.5813 29.1895 31.5917C28.9019 31.6126 28.6456 31.6335 28.426 31.6544C28.0755 31.6909 27.7408 31.7275 27.4166 31.7692C27.2021 31.7953 26.9929 31.8214 26.789 31.8528C26.3862 31.9102 26.0149 31.9624 25.6854 32.0199C25.5181 32.046 25.3664 32.0773 25.2252 32.1034C25.084 32.1295 24.9532 32.1556 24.8329 32.1817C24.6551 32.2183 24.5034 32.2548 24.3884 32.2861H24.3779C24.3779 32.2861 24.2733 32.3122 24.1478 32.3436C24.0223 32.3749 23.8549 32.4167 23.6509 32.4741C23.447 32.5315 23.2011 32.5994 22.924 32.6882C22.2807 32.8866 21.47 33.1633 20.5704 33.5288C20.356 33.6175 20.1363 33.7115 19.9114 33.8107C19.8016 33.8577 19.6866 33.9099 19.5715 33.9621C19.2315 34.1188 18.8811 34.2859 18.5307 34.4686C18.2954 34.5887 18.0652 34.7192 17.8299 34.8498C17.4795 35.0482 17.1238 35.2622 16.7786 35.492C16.5485 35.6434 16.3184 35.8 16.0883 35.9671L14.0381 34.479L13.2431 33.9047C13.2013 33.8734 13.1595 33.8421 13.1176 33.816C13.0078 33.7481 12.9084 33.6906 12.7934 33.6123C12.7777 33.6019 12.7567 33.5914 12.7463 33.5758C12.7463 33.5758 12.762 33.5758 12.7724 33.5601C12.7463 33.5392 12.7201 33.5236 12.694 33.5027C12.694 33.5027 12.7201 33.4922 12.7672 33.4766C12.7934 33.4661 12.8247 33.4557 12.8613 33.4452C12.9032 33.4296 12.9555 33.4139 13.0078 33.393C13.0339 33.3826 13.0653 33.3722 13.0967 33.3617C13.1908 33.3304 13.3007 33.2886 13.421 33.2468C13.4994 33.2207 13.5883 33.1894 13.6772 33.1581C13.7661 33.1268 13.8603 33.0954 13.9597 33.0589C14.0067 33.0432 14.059 33.0223 14.1113 33.0067C14.3624 32.9179 14.6343 32.8239 14.9168 32.7299C15.0841 32.6725 15.2567 32.6151 15.4293 32.5524C15.5444 32.5107 15.6594 32.4741 15.7692 32.4323C15.9418 32.3749 16.1092 32.3175 16.2713 32.26C16.4335 32.2026 16.5956 32.1452 16.7473 32.093C17.2127 31.9259 17.6102 31.7849 17.877 31.6909C17.9659 31.6596 18.0391 31.6335 18.0966 31.6178C18.128 31.6074 18.1542 31.6022 18.1751 31.5917C18.5621 31.4507 18.9857 31.3254 19.4251 31.2053C19.7912 31.1061 20.1677 31.0174 20.5495 30.9338C21.1039 30.8138 21.653 30.7093 22.1656 30.6206C22.5526 30.5527 22.9187 30.4953 23.243 30.4483C23.3528 30.4326 23.4574 30.4169 23.562 30.4013C23.766 30.3752 23.949 30.3491 24.1112 30.3282C24.3988 30.2916 24.608 30.2342 24.7545 30.1663C24.8434 30.1246 24.9114 30.0776 24.9584 30.0306C25.0107 29.9784 25.0421 29.9209 25.0578 29.8635C25.0578 29.8374 25.0683 29.8061 25.0683 29.78C25.0683 29.7225 25.0526 29.6651 25.0317 29.6077C24.995 29.5241 24.9375 29.4406 24.8748 29.3675C24.812 29.2944 24.744 29.2369 24.676 29.19C24.4197 29.19 24.3831 29.19 24.2419 29.2056C24.0903 29.2161 23.9333 29.2265 23.7817 29.2422C23.4731 29.2683 23.1645 29.2996 22.856 29.3362C22.2388 29.4092 21.6269 29.498 21.015 29.5972C20.5391 29.6755 20.0631 29.7643 19.5872 29.8635C19.1217 29.9575 18.6667 30.0567 18.2221 30.1611C17.7776 30.2655 17.3383 30.3752 16.9146 30.4848C15.9262 30.7459 15.0109 31.0122 14.2002 31.268C13.8551 31.3776 13.5256 31.4873 13.2222 31.5865C13.1228 31.623 13.0235 31.6544 12.9241 31.6857C12.4429 31.8528 12.0245 32.0042 11.6898 32.1295H11.7003H11.6846C11.6271 32.1504 11.58 32.1713 11.5277 32.1922C11.4335 32.2287 11.3499 32.26 11.2714 32.2914C11.24 32.307 11.1982 32.3175 11.1668 32.3331L11.1511 32.3122L10.3718 31.7745L9.59257 31.2367C10.194 31.0017 10.8007 30.7563 11.4074 30.5161C11.6114 30.4378 11.8153 30.3595 12.0193 30.2812C12.286 30.182 12.5528 30.088 12.8195 29.994C13.6249 29.7121 14.4408 29.451 15.2724 29.2108C16.036 28.9916 16.81 28.7931 17.5893 28.6156C17.992 28.5269 18.3895 28.4381 18.7974 28.3598C19.2681 28.271 19.7336 28.1875 20.2043 28.1144C20.288 28.0987 20.3769 28.0883 20.4606 28.0778C20.9941 27.9995 21.5223 27.9316 22.0558 27.8847C22.6258 27.8272 23.1959 27.7907 23.766 27.7698C24.3361 27.7489 24.9009 27.7437 25.471 27.7541C25.5547 27.7541 25.6488 27.7541 25.7534 27.7646C25.9521 27.775 26.177 27.7959 26.4176 27.822C26.721 27.8533 27.0452 27.8899 27.3695 27.9369C27.631 27.9734 27.8977 28.01 28.154 28.0465C28.2847 28.0674 28.4103 28.0831 28.5306 28.1039C28.5933 28.1144 28.6509 28.1248 28.7136 28.13C28.8339 28.1509 28.949 28.1666 29.0588 28.1823C29.472 28.2501 29.8119 28.3076 30.0054 28.3389C30.1257 28.3598 30.1885 28.3702 30.1885 28.3754C30.2303 28.3754 30.2669 28.3911 30.3035 28.4016C30.8056 28.4955 31.3339 28.6 31.8673 28.7096C32.6728 28.8767 33.5096 29.0646 34.3516 29.2735C35.1936 29.4823 36.0409 29.7121 36.8725 29.9679C37.5576 30.1768 38.2323 30.4065 38.8808 30.6519C38.9279 30.6676 38.975 30.6884 39.022 30.7041L37.1654 31.9572L37.181 31.9729V31.9624ZM43.091 27.7854L43.0282 27.8324C42.8295 27.7541 42.5785 27.6079 42.2803 27.3991C42.16 27.3155 42.0345 27.2268 41.9038 27.1276C41.8358 27.0806 41.7678 27.0284 41.6998 26.9709C41.2553 26.6263 40.7479 26.2034 40.1988 25.7283C39.7856 25.368 39.3515 24.9817 38.9017 24.5744C38.431 24.1463 37.9499 23.7025 37.4635 23.243C37.1706 22.9715 36.8777 22.6895 36.5848 22.4128C35.9938 21.8542 35.4028 21.2903 34.8328 20.742C34.6968 20.6115 34.566 20.4862 34.4353 20.3609C32.9081 18.8989 31.5692 17.6145 30.7952 16.9462C30.8213 17.0089 30.8475 17.0715 30.8736 17.1394C30.8945 17.1916 30.9207 17.249 30.9468 17.3065C31.0253 17.4892 31.1247 17.719 31.2659 18.0374C31.3234 18.1628 31.3809 18.2933 31.4385 18.4238C31.6163 18.8154 31.8098 19.2227 32.0138 19.6247C32.1497 19.891 32.291 20.1573 32.4322 20.4183C32.5734 20.6742 32.7198 20.9248 32.8715 21.1545C32.9343 21.2537 33.0127 21.3686 33.0964 21.4834C33.1801 21.5983 33.269 21.7236 33.3684 21.8542C33.5619 22.11 33.7815 22.3919 34.0116 22.6739C34.3987 23.149 34.8223 23.645 35.2198 24.1045C35.3767 24.2872 35.5336 24.4648 35.68 24.6318C35.8265 24.7989 35.9677 24.9556 36.0932 25.0965C36.156 25.1696 36.2187 25.2375 36.2763 25.3002C36.3129 25.3419 36.3547 25.3837 36.3965 25.4307C36.6162 25.6604 36.9143 25.9424 37.3118 26.2922C38.1068 26.9918 39.2888 27.963 40.999 29.3153L39.8379 30.1559C39.5136 29.9209 39.1423 29.6285 38.7396 29.3048C38.499 29.1116 38.248 28.9028 37.9917 28.6835C37.8191 28.5373 37.6465 28.3911 37.4739 28.2449C37.0398 27.869 36.5953 27.4826 36.1664 27.1015C36.0827 27.0232 35.9938 26.9501 35.9102 26.8717C35.7428 26.7203 35.5754 26.5689 35.4133 26.4227C34.9269 25.9841 34.4771 25.5717 34.1058 25.2271C34.0273 25.154 33.9541 25.0861 33.8809 25.0182C33.6665 24.8198 33.4886 24.6475 33.3474 24.5117C33.2376 24.4021 33.1487 24.3186 33.0912 24.2611C33.0807 24.2507 33.0702 24.235 33.0598 24.2194C33.0493 24.2037 33.0441 24.188 33.0336 24.1724V24.2037C31.8307 23.0498 30.7952 21.4312 30.1153 19.7448C29.9793 19.4054 29.859 19.066 29.7492 18.7266C29.5347 18.0479 29.3883 17.3743 29.3151 16.7269L27.9866 19.0921C27.9343 19.066 27.8402 18.9825 27.7147 18.852C27.6885 18.8258 27.6624 18.7997 27.6362 18.7684C27.5839 18.711 27.5212 18.6483 27.4584 18.5752C27.2701 18.3664 27.0557 18.1158 26.836 17.8599C26.7628 17.7712 26.6896 17.6876 26.6164 17.5989C26.5798 17.5571 26.5431 17.5101 26.5065 17.4683C26.4333 17.3796 26.3653 17.296 26.2973 17.2125C26.2607 17.1707 26.2293 17.129 26.198 17.0872C26.13 17.0089 26.0672 16.9305 26.0097 16.8522C25.9521 16.7791 25.8946 16.7113 25.8423 16.6434C25.8005 16.5912 25.7639 16.5494 25.7325 16.5076C25.6959 16.4659 25.6645 16.4241 25.6383 16.3875C25.5547 16.2831 25.5024 16.2205 25.5024 16.2205C25.5024 16.2205 25.5128 16.2048 25.539 16.1682C25.5704 16.1213 25.6227 16.0377 25.6959 15.9281C25.7429 15.855 25.7952 15.7714 25.858 15.6775C25.9469 15.5365 26.0567 15.3746 26.1718 15.1971C26.3235 14.9621 26.4961 14.7011 26.6739 14.4296C27.3329 13.4114 28.0808 12.2576 28.3423 11.8503C28.358 11.8294 28.3684 11.8138 28.3789 11.7929C28.4103 11.7407 28.4312 11.7093 28.4364 11.6989V11.6937C28.7921 11.8764 29.0797 12.1166 29.3046 12.3829C29.6027 12.7379 29.8015 13.1452 29.927 13.5368C29.9584 13.636 29.9845 13.7299 30.0107 13.8239C30.0107 13.8344 30.0107 13.8448 30.0211 13.8553C30.0211 13.8709 30.0211 13.8866 30.0316 13.9075C30.0316 13.9231 30.0316 13.9388 30.042 13.9597C30.0577 14.0276 30.0682 14.0954 30.0839 14.1581C30.1048 14.2886 30.1257 14.4087 30.1362 14.5236C30.1362 14.5653 30.1466 14.6071 30.1466 14.6437C30.1571 14.7585 30.1571 14.8629 30.1571 14.9465C30.1571 15.0196 30.1571 15.077 30.1571 15.1136C30.3768 15.1867 30.5964 15.2859 30.8265 15.4007C31.0567 15.5156 31.2868 15.6513 31.5274 15.8028C31.6843 15.902 31.8464 16.0116 32.0033 16.1213C32.6466 16.5703 33.3056 17.1185 33.9593 17.6981C33.9593 17.6981 33.9646 17.6981 33.9698 17.6981C33.9698 17.6981 33.975 17.6981 33.9803 17.7085C34.4667 18.1419 34.9478 18.6013 35.4133 19.0504C36.0304 19.6508 36.6214 20.2512 37.1497 20.7786C37.2804 20.9091 37.4112 21.0396 37.5367 21.165C37.6361 21.2642 37.7982 21.4208 37.9969 21.6192C38.0492 21.6662 38.1015 21.7184 38.1538 21.7758C38.2637 21.8855 38.384 22.0003 38.5095 22.1257C39.2103 22.8149 40.1569 23.7338 41.067 24.6214C41.2343 24.7833 41.3965 24.9451 41.5586 25.1017C41.7207 25.2584 41.8776 25.415 42.0345 25.5612C42.1914 25.7126 42.3379 25.8588 42.4843 25.9946C42.772 26.2713 43.0335 26.5271 43.2584 26.7464C43.4257 26.9083 43.5774 27.0493 43.6977 27.1693C43.7395 27.2059 43.7761 27.2424 43.8075 27.2738L43.1172 27.775H43.091V27.7854ZM46.0146 25.6604C46.0146 25.6604 45.9832 25.6813 45.9675 25.697C45.8838 25.7596 45.7688 25.8484 45.7583 25.8588L45.0732 26.3548C44.8588 26.1669 44.2416 25.603 43.4937 24.919C43.342 24.7833 43.1904 24.6423 43.0335 24.4961C42.8766 24.3499 42.7144 24.2037 42.5523 24.0575C42.4739 23.9844 42.3902 23.9113 42.3117 23.833C41.9875 23.5354 41.6632 23.2378 41.3599 22.961C41.2082 22.8201 41.0617 22.6843 40.9205 22.5538C40.7793 22.4233 40.6486 22.3032 40.5231 22.1883C40.2092 21.9011 39.953 21.6662 39.7908 21.5096C39.6601 21.3895 39.5816 21.3164 39.5816 21.3164C39.498 21.2119 39.409 21.1336 39.3149 21.0449C39.2208 20.9561 39.1109 20.8517 38.9854 20.7003C39.0691 20.6428 39.1475 20.5854 39.2312 20.5227C39.3934 20.4131 39.5503 20.3035 39.7019 20.2042C39.7385 20.1834 39.7699 20.1573 39.8013 20.1364C39.9321 20.0528 40.0523 19.9745 40.1622 19.9014C40.2302 19.8596 40.2929 19.8179 40.3505 19.7813C40.3766 19.7657 40.4028 19.75 40.4237 19.7343C40.6067 19.6195 40.7166 19.5464 40.7061 19.5464C40.7061 19.5464 40.7532 19.6143 40.8473 19.7239C40.8682 19.75 40.8944 19.7761 40.9205 19.8074C40.9728 19.8701 41.0304 19.938 41.0931 20.0058C41.2186 20.1468 41.3546 20.2982 41.4697 20.4288C41.6161 20.5906 41.7312 20.7211 41.7573 20.7473C41.7521 20.7107 42.568 21.6401 43.4937 22.6948C43.6245 22.8462 43.7604 22.9976 43.8964 23.1542C44.0324 23.3056 44.1632 23.4623 44.2991 23.6137C44.4299 23.7651 44.5606 23.9165 44.6862 24.0575C44.8744 24.2768 45.0575 24.4804 45.2196 24.6684C45.3295 24.7937 45.4288 24.9086 45.523 25.0182C45.57 25.0704 45.6119 25.1226 45.6537 25.1696C45.8211 25.3576 45.9414 25.4986 46.0041 25.5769C46.0355 25.6134 46.0564 25.6343 46.0564 25.6343C46.0564 25.6343 46.0407 25.65 46.0146 25.6656V25.6604Z" fill="#2F3640"/>
</svg>
