<svg width="20" height="20" viewBox="0 0 20 20" fill="none" xmlns="http://www.w3.org/2000/svg">
<g clip-path="url(#clip0_6019_1674)">
<path d="M5.00008 7.50002H3.75008C3.19755 7.50002 2.66764 7.28053 2.27694 6.88983C1.88624 6.49913 1.66675 5.96922 1.66675 5.41669C1.66675 4.86415 1.88624 4.33425 2.27694 3.94355C2.66764 3.55285 3.19755 3.33335 3.75008 3.33335H5.00008M5.00008 7.50002V1.66669H15.0001V7.50002M5.00008 7.50002C5.00008 8.8261 5.52687 10.0979 6.46455 11.0356C7.40223 11.9732 8.674 12.5 10.0001 12.5C11.3262 12.5 12.5979 11.9732 13.5356 11.0356C14.4733 10.0979 15.0001 8.8261 15.0001 7.50002M15.0001 7.50002H16.2501C16.8026 7.50002 17.3325 7.28053 17.7232 6.88983C18.1139 6.49913 18.3334 5.96922 18.3334 5.41669C18.3334 4.86415 18.1139 4.33425 17.7232 3.94355C17.3325 3.55285 16.8026 3.33335 16.2501 3.33335H15.0001M3.33341 18.3334H16.6667M8.33341 12.2166V14.1666C8.33341 14.6249 7.94175 14.9833 7.52508 15.1749C6.54175 15.6249 5.83341 16.8666 5.83341 18.3333M11.6667 12.2166V14.1666C11.6667 14.6249 12.0584 14.9833 12.4751 15.1749C13.4584 15.6249 14.1667 16.8666 14.1667 18.3333" stroke="#E07A5F" stroke-width="1.8" stroke-linecap="round" stroke-linejoin="round"/>
</g>
<defs>
<clipPath id="clip0_6019_1674">
<rect width="20" height="20" fill="white"/>
</clipPath>
</defs>
</svg>
